<mxfile host="app.diagrams.net" modified="2022-11-23T12:11:16.962Z" agent="5.0 (Macintosh)" etag="sja3KVVUwyygqBS3x8Kv" version="20.5.3" type="github">
  <diagram id="W1gXoFSjIlfiuD1uIif6" name="Page-1">
    <mxGraphModel dx="1261" dy="1920" grid="1" gridSize="10" guides="1" tooltips="1" connect="1" arrows="1" fold="1" page="1" pageScale="1" pageWidth="850" pageHeight="1100" math="0" shadow="0">
      <root>
        <mxCell id="0" />
        <object label="Subnets" id="vn9yozqJXvgN_gXNzw6p-22">
          <mxCell style="" parent="0" />
        </object>
        <mxCell id="vn9yozqJXvgN_gXNzw6p-23" value="Public subnet" style="points=[[0,0],[0.25,0],[0.5,0],[0.75,0],[1,0],[1,0.25],[1,0.5],[1,0.75],[1,1],[0.75,1],[0.5,1],[0.25,1],[0,1],[0,0.75],[0,0.5],[0,0.25]];outlineConnect=0;gradientColor=none;html=1;whiteSpace=wrap;fontSize=12;fontStyle=0;container=1;pointerEvents=0;collapsible=0;recursiveResize=0;shape=mxgraph.aws4.group;grIcon=mxgraph.aws4.group_security_group;grStroke=0;strokeColor=#248814;fillColor=#E9F3E6;verticalAlign=top;align=left;spacingLeft=30;fontColor=#248814;dashed=0;strokeWidth=3;" vertex="1" parent="vn9yozqJXvgN_gXNzw6p-22">
          <mxGeometry x="14" y="360" width="220" height="145" as="geometry" />
        </mxCell>
        <mxCell id="vn9yozqJXvgN_gXNzw6p-24" value="Public subnet" style="points=[[0,0],[0.25,0],[0.5,0],[0.75,0],[1,0],[1,0.25],[1,0.5],[1,0.75],[1,1],[0.75,1],[0.5,1],[0.25,1],[0,1],[0,0.75],[0,0.5],[0,0.25]];outlineConnect=0;gradientColor=none;html=1;whiteSpace=wrap;fontSize=12;fontStyle=0;container=1;pointerEvents=0;collapsible=0;recursiveResize=0;shape=mxgraph.aws4.group;grIcon=mxgraph.aws4.group_security_group;grStroke=0;strokeColor=#248814;fillColor=#E9F3E6;verticalAlign=top;align=left;spacingLeft=30;fontColor=#248814;dashed=0;strokeWidth=3;" vertex="1" parent="vn9yozqJXvgN_gXNzw6p-22">
          <mxGeometry x="244" y="360" width="220" height="145" as="geometry" />
        </mxCell>
        <mxCell id="vn9yozqJXvgN_gXNzw6p-25" value="Public subnet" style="points=[[0,0],[0.25,0],[0.5,0],[0.75,0],[1,0],[1,0.25],[1,0.5],[1,0.75],[1,1],[0.75,1],[0.5,1],[0.25,1],[0,1],[0,0.75],[0,0.5],[0,0.25]];outlineConnect=0;gradientColor=none;html=1;whiteSpace=wrap;fontSize=12;fontStyle=0;container=1;pointerEvents=0;collapsible=0;recursiveResize=0;shape=mxgraph.aws4.group;grIcon=mxgraph.aws4.group_security_group;grStroke=0;strokeColor=#248814;fillColor=#E9F3E6;verticalAlign=top;align=left;spacingLeft=30;fontColor=#248814;dashed=0;strokeWidth=3;" vertex="1" parent="vn9yozqJXvgN_gXNzw6p-22">
          <mxGeometry x="475" y="360" width="220" height="145" as="geometry" />
        </mxCell>
        <mxCell id="1" style="locked=1;" parent="0" />
        <mxCell id="vn9yozqJXvgN_gXNzw6p-1" value="&lt;font style=&quot;font-size: 15px;&quot;&gt;Singapore&lt;/font&gt;" style="sketch=0;outlineConnect=0;gradientColor=none;html=1;whiteSpace=wrap;fontSize=12;fontStyle=0;shape=mxgraph.aws4.group;grIcon=mxgraph.aws4.group_region;strokeColor=#B6BABF;fillColor=none;verticalAlign=top;align=left;spacingLeft=30;fontColor=#B6BABF;dashed=1;strokeWidth=3;" vertex="1" parent="1">
          <mxGeometry x="800" y="10" width="790" height="620" as="geometry" />
        </mxCell>
        <mxCell id="vn9yozqJXvgN_gXNzw6p-2" value="&lt;font style=&quot;font-size: 18px;&quot;&gt;Sydney&lt;/font&gt;" style="points=[[0,0],[0.25,0],[0.5,0],[0.75,0],[1,0],[1,0.25],[1,0.5],[1,0.75],[1,1],[0.75,1],[0.5,1],[0.25,1],[0,1],[0,0.75],[0,0.5],[0,0.25]];outlineConnect=0;gradientColor=none;html=1;whiteSpace=wrap;fontSize=12;fontStyle=0;container=1;pointerEvents=0;collapsible=0;recursiveResize=0;shape=mxgraph.aws4.group;grIcon=mxgraph.aws4.group_region;strokeColor=#147EBA;fillColor=none;verticalAlign=top;align=left;spacingLeft=30;fontColor=#147EBA;dashed=1;strokeWidth=3;" vertex="1" parent="1">
          <mxGeometry x="10" y="10" width="730" height="620" as="geometry" />
        </mxCell>
        <mxCell id="vn9yozqJXvgN_gXNzw6p-4" value="ap-southeast-2a" style="sketch=0;outlineConnect=0;gradientColor=none;html=1;whiteSpace=wrap;fontSize=12;fontStyle=0;shape=mxgraph.aws4.group;grIcon=mxgraph.aws4.group_availability_zone;strokeColor=#545B64;fillColor=none;verticalAlign=top;align=left;spacingLeft=30;fontColor=#545B64;dashed=1;strokeWidth=3;" vertex="1" parent="vn9yozqJXvgN_gXNzw6p-2">
          <mxGeometry y="320" width="230" height="300" as="geometry" />
        </mxCell>
        <mxCell id="vn9yozqJXvgN_gXNzw6p-14" value="Application Load Balancer" style="sketch=0;outlineConnect=0;fontColor=#232F3E;gradientColor=none;fillColor=#4D27AA;strokeColor=none;dashed=0;verticalLabelPosition=top;verticalAlign=bottom;align=center;html=1;fontSize=12;fontStyle=0;aspect=fixed;pointerEvents=1;shape=mxgraph.aws4.application_load_balancer;strokeWidth=3;labelPosition=center;" vertex="1" parent="vn9yozqJXvgN_gXNzw6p-2">
          <mxGeometry x="306" y="160" width="78" height="78" as="geometry" />
        </mxCell>
        <mxCell id="vn9yozqJXvgN_gXNzw6p-6" value="ap-southeast-2c" style="sketch=0;outlineConnect=0;gradientColor=none;html=1;whiteSpace=wrap;fontSize=12;fontStyle=0;shape=mxgraph.aws4.group;grIcon=mxgraph.aws4.group_availability_zone;strokeColor=#545B64;fillColor=none;verticalAlign=top;align=left;spacingLeft=30;fontColor=#545B64;dashed=1;strokeWidth=3;" vertex="1" parent="vn9yozqJXvgN_gXNzw6p-2">
          <mxGeometry x="460" y="320" width="230" height="300" as="geometry" />
        </mxCell>
        <mxCell id="vn9yozqJXvgN_gXNzw6p-7" value="WebServer AMI" style="sketch=0;outlineConnect=0;fontColor=#232F3E;gradientColor=none;fillColor=#D45B07;strokeColor=none;dashed=0;verticalLabelPosition=bottom;verticalAlign=top;align=center;html=1;fontSize=12;fontStyle=0;aspect=fixed;pointerEvents=1;shape=mxgraph.aws4.ami;strokeWidth=3;" vertex="1" parent="vn9yozqJXvgN_gXNzw6p-2">
          <mxGeometry x="610" y="200" width="48" height="48" as="geometry" />
        </mxCell>
        <mxCell id="vn9yozqJXvgN_gXNzw6p-9" value="CodeCommit" style="sketch=0;points=[[0,0,0],[0.25,0,0],[0.5,0,0],[0.75,0,0],[1,0,0],[0,1,0],[0.25,1,0],[0.5,1,0],[0.75,1,0],[1,1,0],[0,0.25,0],[0,0.5,0],[0,0.75,0],[1,0.25,0],[1,0.5,0],[1,0.75,0]];outlineConnect=0;fontColor=#232F3E;gradientColor=#4D72F3;gradientDirection=north;fillColor=#3334B9;strokeColor=#ffffff;dashed=0;verticalLabelPosition=bottom;verticalAlign=top;align=center;html=1;fontSize=12;fontStyle=0;aspect=fixed;shape=mxgraph.aws4.resourceIcon;resIcon=mxgraph.aws4.codecommit;strokeWidth=3;" vertex="1" parent="vn9yozqJXvgN_gXNzw6p-2">
          <mxGeometry x="620" y="40" width="78" height="78" as="geometry" />
        </mxCell>
        <mxCell id="vn9yozqJXvgN_gXNzw6p-17" style="edgeStyle=orthogonalEdgeStyle;rounded=0;orthogonalLoop=1;jettySize=auto;html=1;fontSize=15;startArrow=none;startFill=0;endArrow=block;endFill=1;strokeWidth=2;" edge="1" parent="vn9yozqJXvgN_gXNzw6p-2" source="vn9yozqJXvgN_gXNzw6p-14">
          <mxGeometry relative="1" as="geometry">
            <mxPoint x="354" y="260" as="sourcePoint" />
            <mxPoint x="354" y="360" as="targetPoint" />
          </mxGeometry>
        </mxCell>
        <mxCell id="vn9yozqJXvgN_gXNzw6p-5" value="ap-southeast-2b" style="sketch=0;outlineConnect=0;gradientColor=none;html=1;whiteSpace=wrap;fontSize=12;fontStyle=0;shape=mxgraph.aws4.group;grIcon=mxgraph.aws4.group_availability_zone;strokeColor=#545B64;fillColor=none;verticalAlign=top;align=left;spacingLeft=30;fontColor=#545B64;dashed=1;strokeWidth=3;" vertex="1" parent="vn9yozqJXvgN_gXNzw6p-2">
          <mxGeometry x="230" y="320" width="230" height="300" as="geometry" />
        </mxCell>
        <mxCell id="vn9yozqJXvgN_gXNzw6p-20" value="Private subnet" style="points=[[0,0],[0.25,0],[0.5,0],[0.75,0],[1,0],[1,0.25],[1,0.5],[1,0.75],[1,1],[0.75,1],[0.5,1],[0.25,1],[0,1],[0,0.75],[0,0.5],[0,0.25]];outlineConnect=0;gradientColor=none;html=1;whiteSpace=wrap;fontSize=12;fontStyle=0;container=1;pointerEvents=0;collapsible=0;recursiveResize=0;shape=mxgraph.aws4.group;grIcon=mxgraph.aws4.group_security_group;grStroke=0;strokeColor=#147EBA;fillColor=#E6F2F8;verticalAlign=top;align=left;spacingLeft=30;fontColor=#147EBA;dashed=0;strokeWidth=3;" vertex="1" parent="vn9yozqJXvgN_gXNzw6p-2">
          <mxGeometry y="500" width="230" height="120" as="geometry" />
        </mxCell>
        <mxCell id="vn9yozqJXvgN_gXNzw6p-16" value="Auto Scaling group" style="points=[[0,0],[0.25,0],[0.5,0],[0.75,0],[1,0],[1,0.25],[1,0.5],[1,0.75],[1,1],[0.75,1],[0.5,1],[0.25,1],[0,1],[0,0.75],[0,0.5],[0,0.25]];outlineConnect=0;gradientColor=none;html=1;whiteSpace=wrap;fontSize=12;fontStyle=0;container=1;pointerEvents=0;collapsible=0;recursiveResize=0;shape=mxgraph.aws4.groupCenter;grIcon=mxgraph.aws4.group_auto_scaling_group;grStroke=1;strokeColor=#D86613;fillColor=none;verticalAlign=top;align=center;fontColor=#D86613;dashed=1;spacingTop=25;strokeWidth=3;" vertex="1" parent="vn9yozqJXvgN_gXNzw6p-2">
          <mxGeometry y="380" width="690" height="110" as="geometry" />
        </mxCell>
        <mxCell id="vn9yozqJXvgN_gXNzw6p-8" value="WebServer AMI" style="sketch=0;outlineConnect=0;fontColor=#232F3E;gradientColor=none;fillColor=#D45B07;strokeColor=none;dashed=0;verticalLabelPosition=bottom;verticalAlign=top;align=center;html=1;fontSize=12;fontStyle=0;aspect=fixed;pointerEvents=1;shape=mxgraph.aws4.ami;strokeWidth=3;" vertex="1" parent="1">
          <mxGeometry x="860" y="210" width="48" height="48" as="geometry" />
        </mxCell>
        <mxCell id="vn9yozqJXvgN_gXNzw6p-12" style="edgeStyle=orthogonalEdgeStyle;rounded=0;orthogonalLoop=1;jettySize=auto;html=1;entryX=0.5;entryY=0;entryDx=0;entryDy=0;entryPerimeter=0;fontSize=15;endArrow=none;endFill=0;" edge="1" parent="1" source="vn9yozqJXvgN_gXNzw6p-11" target="vn9yozqJXvgN_gXNzw6p-10">
          <mxGeometry relative="1" as="geometry">
            <Array as="points">
              <mxPoint x="765" y="60" />
            </Array>
          </mxGeometry>
        </mxCell>
        <mxCell id="vn9yozqJXvgN_gXNzw6p-13" style="edgeStyle=orthogonalEdgeStyle;rounded=0;orthogonalLoop=1;jettySize=auto;html=1;fontSize=15;startArrow=classicThin;startFill=0;" edge="1" parent="1" source="vn9yozqJXvgN_gXNzw6p-11" target="vn9yozqJXvgN_gXNzw6p-9">
          <mxGeometry relative="1" as="geometry">
            <Array as="points">
              <mxPoint x="765" y="60" />
            </Array>
          </mxGeometry>
        </mxCell>
        <mxCell id="vn9yozqJXvgN_gXNzw6p-11" value="" style="verticalLabelPosition=bottom;html=1;verticalAlign=top;align=center;strokeColor=none;fillColor=#00BEF2;shape=mxgraph.azure.git_repository;strokeWidth=3;fontSize=15;" vertex="1" parent="1">
          <mxGeometry x="700" y="-290" width="130" height="130" as="geometry" />
        </mxCell>
        <mxCell id="vn9yozqJXvgN_gXNzw6p-10" value="CodeCommit" style="sketch=0;points=[[0,0,0],[0.25,0,0],[0.5,0,0],[0.75,0,0],[1,0,0],[0,1,0],[0.25,1,0],[0.5,1,0],[0.75,1,0],[1,1,0],[0,0.25,0],[0,0.5,0],[0,0.75,0],[1,0.25,0],[1,0.5,0],[1,0.75,0]];outlineConnect=0;fontColor=#232F3E;gradientColor=#4D72F3;gradientDirection=north;fillColor=#3334B9;strokeColor=#ffffff;dashed=0;verticalLabelPosition=bottom;verticalAlign=top;align=center;html=1;fontSize=12;fontStyle=0;aspect=fixed;shape=mxgraph.aws4.resourceIcon;resIcon=mxgraph.aws4.codecommit;strokeWidth=3;" vertex="1" parent="1">
          <mxGeometry x="820" y="50" width="78" height="78" as="geometry" />
        </mxCell>
      </root>
    </mxGraphModel>
  </diagram>
</mxfile>
